<mxfile host="app.diagrams.net" modified="2023-10-09T16:24:00.938Z" agent="Mozilla/5.0 (Macintosh; Intel Mac OS X 10.15; rv:109.0) Gecko/20100101 Firefox/118.0" etag="8kwUR4N0cwZvw1fPAqbc" version="22.0.4" type="github">
  <diagram name="Page-1" id="6TOCxpUO852pXXZngEoc">
    <mxGraphModel dx="953" dy="512" grid="1" gridSize="10" guides="1" tooltips="1" connect="1" arrows="1" fold="1" page="1" pageScale="1" pageWidth="1169" pageHeight="827" math="0" shadow="0">
      <root>
        <mxCell id="0" />
        <mxCell id="1" parent="0" />
      </root>
    </mxGraphModel>
  </diagram>
</mxfile>
